<svg width="42" height="44" viewBox="0 0 42 44" fill="none" xmlns="http://www.w3.org/2000/svg">
<path d="M41.7397 20.6038C41.6013 20.5033 41.4318 20.4459 41.2671 20.4005C40.7993 20.2665 40.3196 20.1803 39.8399 20.0966C37.8662 19.7496 35.8924 19.417 33.9115 19.1036C33.7779 19.0821 33.6442 19.0605 33.5106 19.0414C33.1836 18.9887 33.1 18.7519 33.3745 18.5413C35.5702 16.8664 37.9616 15.4355 40.2743 13.9257C40.4199 13.83 40.5678 13.7343 40.6728 13.5955C40.9067 13.2916 40.7731 12.8729 40.3912 12.7844C40.217 12.7437 40.0356 12.7748 39.8614 12.8035C37.7588 13.1672 35.6776 13.6529 33.6227 14.2296C32.9282 14.4234 32.1239 14.7656 31.3841 14.6842C31.291 14.6699 31.2003 14.6076 31.1836 14.5143C31.1693 14.4402 31.2051 14.366 31.2409 14.299C31.4604 13.9138 31.7635 13.5644 32.0189 13.2055C33.6036 10.9707 35.4032 8.82919 36.6227 6.35989C36.7421 6.11822 36.8566 5.82152 36.7134 5.58943C36.6084 5.41954 36.3888 5.34776 36.1884 5.36451C35.9879 5.38126 35.8041 5.47458 35.6275 5.5655C33.1621 6.84083 30.8805 8.48703 28.6538 10.1356C28.6323 10.1524 28.6084 10.1691 28.5869 10.1859C28.2934 10.4036 27.9998 10.6261 27.7063 10.8439C27.291 11.1262 27.248 10.7362 27.3244 10.3988C27.3912 10.1021 27.4151 9.79346 27.501 9.50155C27.6012 9.16417 27.7134 8.82919 27.8137 8.49421C28.0165 7.81946 28.2075 7.14231 28.3841 6.46038C28.5845 5.68992 28.7683 4.91468 28.933 4.13704C29.0643 3.5245 29.1573 2.90956 29.2695 2.29463C29.3125 2.05536 29.3316 1.80173 29.2409 1.57681C29.1502 1.35189 28.9163 1.17244 28.6752 1.21072C28.427 1.2514 28.2647 1.47153 28.1406 1.67013C27.3745 2.88564 23.8137 8.48942 23.5965 8.71434C23.5058 8.81005 23.3721 8.90097 23.2504 8.85073C23.1311 8.80287 23.0953 8.65213 23.0786 8.52292C22.8017 6.46038 22.5273 4.3787 22.0428 2.35206C21.9043 1.77302 21.7468 1.19876 21.5607 0.634074C21.5105 0.480939 21.4557 0.325412 21.3554 0.198597C21.2552 0.0717817 21.0953 -0.0167495 20.9354 0.0047851C20.7993 0.023927 20.6848 0.124422 20.6132 0.241666C20.5416 0.35891 20.5058 0.495296 20.4724 0.629289C19.9497 2.71097 19.6012 4.82854 19.2695 6.9485C19.186 7.48208 19.0643 8.00609 18.964 8.53728C18.9473 8.6282 18.9282 8.72391 18.8805 8.80287C18.8328 8.88183 18.7444 8.94643 18.6514 8.93926C18.5368 8.93208 18.4557 8.8268 18.3912 8.73109C17.2886 7.08728 16.3149 5.34776 15.26 3.67285C14.8876 3.07227 14.501 2.47887 14.0953 1.90222C13.9497 1.69406 13.8065 1.45957 13.5965 1.30883C13.4891 1.22987 13.3578 1.17962 13.2265 1.19397C13.0571 1.21312 12.9115 1.34472 12.8423 1.50024C12.7731 1.65577 12.7659 1.83523 12.785 2.00511C12.8232 2.34488 12.9044 2.68465 12.9759 3.01724C13.0523 3.36897 13.1359 3.71592 13.2218 4.06526C13.3936 4.76154 13.5774 5.45304 13.7444 6.15172C13.7612 6.21632 13.7755 6.28332 13.7922 6.34793C14.1239 7.76682 14.4557 9.18571 14.7898 10.6022C14.8232 10.7506 14.8375 10.9492 14.7015 11.0162C14.5893 11.0712 14.4628 10.9946 14.3626 10.9204C14.2265 10.8223 14.0929 10.7218 13.9592 10.6213C12.3053 9.37952 10.6394 8.15205 8.8948 7.03943C8.038 6.49149 7.15733 5.98662 6.27666 5.48175C6.07141 5.36451 5.82559 5.24248 5.61079 5.34298C5.44373 5.41954 5.35304 5.61575 5.35304 5.79999C5.35304 5.98423 5.41986 6.16129 5.49624 6.33118C5.90674 7.24759 6.49385 8.1018 7.038 8.94165C7.60363 9.81739 8.1979 10.6716 8.79695 11.5234C9.45327 12.459 10.1024 13.3969 10.7492 14.3397C10.8017 14.4162 10.8542 14.5119 10.8137 14.5933C10.7659 14.689 10.6275 14.6866 10.5225 14.6699C9.44134 14.4928 8.36974 14.2152 7.29814 13.9784C5.75399 13.6386 4.20984 13.2749 2.65375 13.0021C2.37452 12.9519 2.09289 12.9136 1.81127 12.8801C1.70149 12.8681 1.5917 12.8562 1.4843 12.8801C1.3769 12.904 1.27189 12.9638 1.22177 13.0619C1.17165 13.1624 1.18597 13.2869 1.23609 13.3874C1.28621 13.4878 1.36735 13.5692 1.45089 13.6434C1.79218 13.9473 5.53442 16.3711 6.44373 16.9765C7.22416 17.4957 7.99743 18.0316 8.78741 18.5365C8.89003 18.6011 9.0213 18.7112 8.96641 18.8476C8.93061 18.9265 8.83275 18.9552 8.74683 18.9744C7.42225 19.2687 6.07857 19.4123 4.74206 19.642C3.45328 19.8645 2.17642 20.1516 0.897186 20.4244C0.732508 20.4603 0.565449 20.4962 0.417477 20.5799C0.269506 20.6637 0.145401 20.8 0.119148 20.9675C0.0905084 21.1637 0.205064 21.3575 0.362582 21.4772C0.5201 21.5968 0.715804 21.6519 0.906735 21.7021C1.51771 21.86 2.13824 21.9677 2.75877 22.073C3.73967 22.2405 4.72058 22.4032 5.70148 22.5635C6.68239 22.7238 7.5917 22.8291 8.50578 23.1114C8.92344 23.2191 8.90674 23.5254 8.56783 23.7622C6.92822 24.9873 5.15017 26.0162 3.43657 27.1264C3.1096 27.3394 2.78024 27.5499 2.45089 27.7605C2.24802 27.8897 2.04039 28.0094 1.83991 28.141C1.66091 28.2558 1.48907 28.397 1.38406 28.586C1.30292 28.7344 1.26712 28.9234 1.34826 29.0717C1.40077 29.165 1.49385 29.2296 1.59648 29.2655C1.69671 29.3014 1.80411 29.311 1.91151 29.311C2.15256 29.3134 2.39361 29.2823 2.62989 29.2344C2.74922 29.2105 2.86855 29.1818 2.98549 29.1531C3.09528 29.1244 3.20268 29.1052 3.31247 29.0813C3.81843 28.9688 4.32201 28.842 4.82559 28.7104C5.32917 28.5788 5.83036 28.44 6.33394 28.3037C6.83752 28.1697 7.34111 28.0357 7.84707 27.9113C8.79934 27.6768 9.75638 27.5188 10.7254 27.3753C10.7993 27.3633 10.89 27.3609 10.9282 27.4255C10.9664 27.4877 10.9234 27.5667 10.8805 27.6265C10.575 28.0596 10.2743 28.4951 9.96163 28.9234C9.65614 29.3397 9.35781 29.7584 9.05948 30.1796C8.76115 30.6007 8.46521 31.029 8.17404 31.4597C7.88287 31.8904 7.59647 32.3235 7.31485 32.7613C6.65614 33.7878 6.05471 34.8454 5.44612 35.903C5.3602 36.0537 5.27189 36.2069 5.24564 36.3767C5.21938 36.5466 5.26473 36.7404 5.40077 36.8457C5.5034 36.9223 5.64182 36.939 5.76831 36.9175C5.8948 36.896 6.01175 36.8385 6.1263 36.7811C7.77547 35.958 9.24087 34.8286 10.7635 33.8022C11.9163 33.0269 13.0619 32.1847 14.2003 31.4094C14.4557 31.1941 14.7516 31.297 14.6347 31.6559C13.9378 34.3932 13.3053 37.1352 12.723 39.8989C12.6609 40.1956 12.6156 40.5473 12.828 40.7626C13.0189 40.954 13.3483 40.9349 13.5798 40.7937C13.8113 40.6526 13.9664 40.4157 14.1144 40.1884C14.9616 38.8795 15.8113 37.5707 16.6418 36.2499C17.143 35.4508 17.6347 34.6468 18.1287 33.8452C18.26 33.6107 18.4891 33.3236 18.7898 33.4145C19.0141 33.4911 19.0786 33.7711 19.1096 34.0079C19.1382 34.2376 19.1693 34.4673 19.1979 34.697C19.4652 36.8338 19.7063 38.9753 20.0404 41.1024C20.1454 41.7795 20.2719 42.4519 20.3841 43.129C20.4222 43.3564 20.4843 43.5884 20.6275 43.7655C20.7707 43.9426 21.0165 44.0574 21.2361 43.9904C21.4843 43.9139 21.6203 43.6435 21.6681 43.3875C22.0452 41.2938 22.2051 39.1667 22.4724 37.0563C22.5678 36.2858 22.6514 35.5082 22.8232 34.7521C22.9115 34.3597 23.0117 33.74 23.4724 33.6155C23.8638 33.5103 24.155 33.9051 24.3316 34.1946C24.5917 34.6181 27.2838 39.126 27.5845 39.5878C27.8471 39.9922 28.0881 40.521 28.5082 40.7866C28.6967 40.9062 28.9545 40.9445 29.1382 40.8177C29.2576 40.7363 29.3292 40.5975 29.3578 40.454C29.3865 40.3104 29.3769 40.1644 29.365 40.0209C29.2767 38.992 28.9807 38.011 28.7206 37.0156C28.3005 35.3335 27.8423 33.6586 27.4008 31.9813C27.3674 31.8497 27.3316 31.7157 27.3483 31.5817C27.365 31.4477 27.4485 31.3113 27.5774 31.2754C27.7039 31.2395 27.8375 31.3018 27.9521 31.3664C28.5583 31.6966 29.1 32.1272 29.6609 32.5292C30.2218 32.9312 30.8184 33.3547 31.4008 33.7615C32.5655 34.575 33.7421 35.3742 34.9282 36.159C35.1884 36.3313 35.4485 36.506 35.7134 36.671C35.89 36.7811 36.0738 36.8936 36.2791 36.9175C36.6347 36.9582 36.8805 36.6806 36.7898 36.3361C36.7349 36.1255 36.6203 35.9365 36.5153 35.7475C36.3912 35.5225 36.2647 35.2976 36.1358 35.0751C35.6156 34.1778 35.0213 33.326 34.4437 32.467C33.8423 31.5697 33.2313 30.6749 32.6227 29.7824C32.1955 29.1579 31.7707 28.5334 31.3459 27.9065C31.0523 27.5069 31.2695 27.2365 31.7325 27.3537C32.7779 27.5691 33.8137 27.8251 34.8518 28.074C35.8948 28.3252 36.9378 28.586 37.9783 28.8468C38.4962 28.976 39.0165 29.1052 39.5344 29.2344C39.5821 29.2464 39.6275 29.2584 39.6752 29.2703C39.8423 29.311 40.0118 29.3541 40.186 29.3493C40.3602 29.3445 40.5368 29.2847 40.649 29.1555C40.8208 28.9593 40.797 28.6458 40.6609 28.4257C40.5249 28.2056 40.2958 28.0572 40.0666 27.9328C39.7373 27.7557 39.4318 27.5547 39.1168 27.3561C38.754 27.1264 38.3936 26.8967 38.0308 26.667C36.5034 25.698 34.933 24.7744 33.4843 23.6857C33.4127 23.633 33.3387 23.5756 33.2934 23.499C33.248 23.4225 33.2337 23.3172 33.2862 23.2454C33.3387 23.1688 33.439 23.1473 33.5296 23.1306C35.396 22.786 37.2647 22.4391 39.1311 22.0921C39.7922 21.9701 40.4533 21.8457 41.1168 21.7236C41.3101 21.6877 41.5058 21.6519 41.6752 21.5538C41.8447 21.4557 41.9855 21.2834 41.9903 21.0872C41.995 20.9077 41.8876 20.7426 41.7444 20.6349C41.7397 20.6326 41.7349 20.6278 41.7301 20.6254L41.7397 20.6038ZM25.711 21.2786C25.6943 21.8744 25.6156 22.4726 25.4199 23.0349C24.9402 24.3987 23.7826 25.1811 22.3936 25.4228C20.3769 25.7721 17.9521 25.5831 16.9569 23.511C16.5654 22.6951 16.4509 21.7691 16.4628 20.8623C16.4795 19.8071 16.6824 18.7112 17.322 17.8737C18.248 16.6654 19.8089 16.3137 21.2576 16.3735C22.143 16.4118 22.9425 16.5338 23.7206 16.9741C24.3745 17.3449 24.8853 17.9431 25.2098 18.6179C25.5583 19.35 25.7015 20.166 25.711 20.9771C25.7134 21.0776 25.7134 21.1781 25.711 21.2786Z" fill="#231F20"/>
</svg>
